<?xml version="1.0" encoding="UTF-8" standalone="no"?>
<svg
   xmlns:dc="http://purl.org/dc/elements/1.1/"
   xmlns:cc="http://creativecommons.org/ns#"
   xmlns:rdf="http://www.w3.org/1999/02/22-rdf-syntax-ns#"
   xmlns:svg="http://www.w3.org/2000/svg"
   xmlns="http://www.w3.org/2000/svg"
   style="fill:none"
   id="svg16"
   version="1.1"
   viewBox="0 0 30 26"
   height="26"
   width="30">
  <metadata
     id="metadata22">
    <rdf:RDF>
      <cc:Work
         rdf:about="">
        <dc:format>image/svg+xml</dc:format>
        <dc:type
           rdf:resource="http://purl.org/dc/dcmitype/StillImage" />
        <dc:title></dc:title>
      </cc:Work>
    </rdf:RDF>
  </metadata>
  <defs
     id="defs20">
    <radialGradient
       id="radialGradient-1"
       gradientTransform="scale(1.0405291,0.9610495)"
       r="12.703601"
       fy="12.354463"
       fx="11.390857"
       cy="12.354463"
       cx="11.390857"
       gradientUnits="userSpaceOnUse">
      <stop
         id="stop2"
         offset="0%"
         stop-color="#FFB900" />
      <stop
         id="stop4"
         offset="74.7090242%"
         stop-color="#FA5C86" />
      <stop
         id="stop6"
         offset="100%"
         stop-color="#F95353" />
    </radialGradient>
  </defs>
  <g
     transform="matrix(1.2334624,0,0,1.1849523,0.38036471,0.05623436)"
     id="dots-wrapper"
     style="fill:none;fill-rule:evenodd;stroke:none;stroke-width:1">
    <path
       style="fill:url(#radialGradient-1)"
       id="dots"
       d="m 17.007883,5.1514375 c 0,2.8453333 -2.308066,5.1520105 -5.155308,5.1520105 -2.847356,0 -5.1554221,-2.3066772 -5.1554221,-5.1520105 C 6.6971529,2.3066771 9.005219,0 11.852575,0 c 2.847242,0 5.155308,2.3066771 5.155308,5.1514375 z M 5.1554225,11.591479 C 2.3081808,11.591479 0,13.897469 0,16.742802 c 0,2.845104 2.3081808,5.151552 5.1554225,5.151552 2.8473564,0 5.1556515,-2.306448 5.1556515,-5.151552 0,-2.845333 -2.3082951,-5.151323 -5.1556515,-5.151323 z m 13.3941915,-4.58e-4 c -2.847242,0 -5.155423,2.306448 -5.155423,5.151781 0,2.845104 2.308181,5.151552 5.155423,5.151552 2.847241,0 5.155422,-2.306448 5.155422,-5.151552 0,-2.845333 -2.308181,-5.151781 -5.155422,-5.151781 z" />
  </g>
  <g
     transform="translate(3.0167639,2.8494318)"
     id="g852">
    <path
       style="fill:#e24329"
       d="m 1.3332719,9.33332 6.25334,5.99998 V 9.33332 l -2.66667,-8.18666 c -0.13667,-0.421335 -0.784,-0.421335 -0.92,0 z"
       id="path2" />
    <path
       style="fill:#e24329"
       d="m 22.666632,9.33332 -6.2534,5.99998 V 9.33332 l 2.6667,-8.18666 c 0.1367,-0.421335 0.784,-0.421335 0.92,0 z"
       id="path4" />
    <path
       style="fill:#e24329"
       d="M 11.999932,22.92 1.9999319,9.33334 H 21.999932 Z"
       id="path6" />
    <path
       style="fill:#fc6d26"
       d="M 11.999932,22.92 7.5866119,9.33334 h -6.25334 l 2.66667,7.33336 z"
       id="path8" />
    <path
       style="fill:#fc6d26"
       d="m 11.999932,22.92 4.4133,-13.58666 h 6.2534 l -2.6667,7.33336 z"
       id="path10" />
    <path
       style="opacity:0.7;fill:#fca326"
       d="m 2.0807232,11.309368 -0.7354575,2.709841 c -0.12,0.3767 1e-7,0.8 0.3333332,1.04 L 12.013232,22.92 Z"
       id="path12" />
    <path
       style="opacity:0.7;fill:#fca326"
       d="m 21.884411,11.309368 0.722749,2.50951 c 0.12,0.3767 0,0.8 -0.3333,1.04 L 11.999932,22.92 Z"
       id="path14" />
  </g>
</svg>
